<svg xmlns="http://www.w3.org/2000/svg" xmlns:xlink="http://www.w3.org/1999/xlink" xmlns:lucid="lucid" width="960" height="860"><g transform="translate(-380 -60)" lucid:page-tab-id="0_0"><path d="M0 0h1870.87v1322.83H0z" fill="#fff"/><path d="M700 726a6 6 0 0 1 6-6h308a6 6 0 0 1 6 6v28a6 6 0 0 1-6 6H706a6 6 0 0 1-6-6z" stroke="#3a414a" fill-opacity="0"/><use xlink:href="#a" transform="matrix(1,0,0,1,708,728) translate(65.61111111111111 17.77777777777778)"/><path d="M690 866a6 6 0 0 1 6-6h328a6 6 0 0 1 6 6v28a6 6 0 0 1-6 6H696a6 6 0 0 1-6-6z" stroke="#3a414a" fill-opacity="0"/><use xlink:href="#b" transform="matrix(1,0,0,1,698,868) translate(5.30864197530866 17.77777777777778)"/><use xlink:href="#c" transform="matrix(1,0,0,1,698,868) translate(70.61728395061729 17.77777777777778)"/><use xlink:href="#d" transform="matrix(1,0,0,1,698,868) translate(116.17283950617285 17.77777777777778)"/><use xlink:href="#e" transform="matrix(1,0,0,1,698,868) translate(220.98765432098764 17.77777777777778)"/><use xlink:href="#f" transform="matrix(1,0,0,1,698,868) translate(282.71604938271605 17.77777777777778)"/><path d="M720 80h240v60H720z" fill="none"/><use xlink:href="#g" transform="matrix(1,0,0,1,720,80) translate(27.53086419753086 21.111111111111114)"/><use xlink:href="#h" transform="matrix(1,0,0,1,720,80) translate(126.17283950617282 21.111111111111114)"/><use xlink:href="#i" transform="matrix(1,0,0,1,720,80) translate(47.345679012345684 47.777777777777786)"/><use xlink:href="#j" transform="matrix(1,0,0,1,720,80) translate(108.95061728395063 47.777777777777786)"/><path d="M780 446a6 6 0 0 1 6-6h148a6 6 0 0 1 6 6v114a6 6 0 0 1-6 6H786a6 6 0 0 1-6-6z" stroke="#3a414a" fill="#fff"/><use xlink:href="#k" transform="matrix(1,0,0,1,788,448) translate(29.500000000000007 59.44444444444444)"/><path d="M400 166a6 6 0 0 1 6-6h348a6 6 0 0 1 6 6v173a6 6 0 0 1-6 6H406a6 6 0 0 1-6-6z" stroke="#3a414a" fill="#fff"/><path d="M400 201.6h360m-360 45.67h360" stroke="#3a414a" fill="none"/><use xlink:href="#l" transform="matrix(1,0,0,1,408,168) translate(102.81481481481482 17.266666666666666)"/><use xlink:href="#m" transform="matrix(1,0,0,1,412,255.2666666666667) translate(0 19.31111111111111)"/><use xlink:href="#n" transform="matrix(1,0,0,1,412,255.2666666666667) translate(19.1358024691358 19.31111111111111)"/><use xlink:href="#m" transform="matrix(1,0,0,1,412,255.2666666666667) translate(0 45.977777777777774)"/><use xlink:href="#o" transform="matrix(1,0,0,1,412,255.2666666666667) translate(19.1358024691358 45.977777777777774)"/><use xlink:href="#p" transform="matrix(1,0,0,1,412,255.2666666666667) translate(185.6543209876543 45.977777777777774)"/><use xlink:href="#q" transform="matrix(1,0,0,1,412,255.2666666666667) translate(0 71.93333333333334)"/><use xlink:href="#r" transform="matrix(1,0,0,1,412,255.2666666666667) translate(18.370370370370374 71.93333333333334)"/><path d="M900 166a6 6 0 0 1 6-6h408a6 6 0 0 1 6 6v148a6 6 0 0 1-6 6H906a6 6 0 0 1-6-6z" stroke="#3a414a" fill="#fff"/><path d="M900 201.6h420m-420 46.17h420" stroke="#3a414a" fill="none"/><use xlink:href="#s" transform="matrix(1,0,0,1,908,168) translate(156.45925925925926 17.266666666666666)"/><use xlink:href="#m" transform="matrix(1,0,0,1,912,255.7666666666667) translate(0 19.644444444444446)"/><use xlink:href="#t" transform="matrix(1,0,0,1,912,255.7666666666667) translate(19.1358024691358 19.644444444444446)"/><use xlink:href="#u" transform="matrix(1,0,0,1,912,255.7666666666667) translate(291.09839024691354 19.644444444444446)"/><use xlink:href="#v" transform="matrix(1,0,0,1,912,255.7666666666667) translate(0 45.60000000000001)"/><use xlink:href="#w" transform="matrix(1,0,0,1,912,255.7666666666667) translate(18.370370370370374 45.60000000000001)"/><use xlink:href="#x" transform="matrix(1,0,0,1,912,255.7666666666667) translate(297.4364303703703 45.60000000000001)"/><path d="M779.04 503.5h-4.95v-1h4.94zm-9.9 0h-9.9v-1h9.9zm-14.85 0h-9.9v-1h9.9zm-14.86 0h-9.9v-1h9.9zm-14.85 0h-9.9v-1h9.9zm-14.86 0h-9.9v-1h9.9zm-14.85 0H685v-1h9.9zm-14.86 0h-9.9v-1h9.9zm-14.85 0h-9.9v-1h9.9zm-14.85 0h-9.9v-1h9.9zm-14.85 0h-9.9v-1h9.9zm-14.85 0h-9.9v-1h9.9zm-14.85 0h-9.9v-1h9.9zm-25.23-5.62l.2.82.33.8.45.73.56.66.67.55.73.45.8.33.84.2.88.07h4.93v1h-4.97l-1-.08-1-.24-.93-.4-.87-.52-.78-.66-.66-.78-.53-.87-.38-.94-.25-1v-5.1h1zm0-10.05h-1v-10.1h1zm0-15.15h-1v-10.1h1zm-.02-15.16h-1v-10.1h1zm0-15.16h-1v-10.1h1zm0-15.15h-1v-4.96h1zm-.03-30.3h-1v-10.1h1zm0-15.16h-1v-10.1h1zm0-15.16h-1l-.02-10.1h1zm-.02-15.16h-1v-5.05h1z" stroke="#3a414a" stroke-width=".05" fill="#3a414a"/><path d="M779.54 503.5h-.52v-1h.52z" fill="#3a414a"/><path d="M779.56 503.52H779v-1.04h.56zm-.5-1v.96h.45v-.96zM590.6 363.4l-.85.5-9.75-16.47-9.75 16.48-.86-.5 10.6-17.94z" stroke="#3a414a" stroke-width=".05" fill="#3a414a"/><g><use xlink:href="#y" transform="matrix(1,0,0,1,559.7777777777778,400.9048477064386) translate(0 14.222222222222223)"/></g><path d="M945.9 503.5h-4.94v-1h4.94zm14.83 0h-9.9v-1h9.9zm14.82 0h-9.88v-1h9.88zm14.82 0h-9.88v-1h9.87zm14.82 0h-9.9v-1h9.9zm14.8 0h-9.87v-1h9.88zm14.83 0h-9.88v-1h9.88zm14.82 0h-9.88v-1h9.88zm14.83 0h-9.9v-1h9.9zm14.82 0h-9.88v-1h9.88zm14.82 0h-9.88v-1h9.88zm16.3-10.47V498l-.24 1-.4.95-.52.87-.66.78-.78.66-.87.53-.94.38-.98.24-1 .08h-4.96v-1h4.92l.88-.07.84-.2.8-.33.73-.45.66-.56.55-.67.45-.73.33-.8.2-.82v-4.85zm0-14.7v9.8h-1v-9.8zm.02-14.72v9.82h-1v-9.8zm0-14.7v9.8h-1v-9.8zm0-14.72v9.8h-1v-9.8zm.02-14.72v9.8h-1v-9.8zm0-4.9h-1v-6.5h1zm.02-39.24v9.8h-1v-9.8zm0-14.7v9.8h-1v-9.8zm0-14.72v9.8h-1v-9.8zm.02-14.72v9.8h-1v-9.8zm0-9.8v4.9h-1v-4.9z" stroke="#3a414a" stroke-width=".05" fill="#3a414a"/><path d="M940.98 503.5h-.52v-1h.52z" fill="#3a414a"/><path d="M941 503.52h-.56v-1.04h.56zm-.5-1v.96h.45v-.96zM1120.6 338.4l-.85.5-9.75-16.47-9.75 16.48-.86-.5 10.6-17.94z" stroke="#3a414a" stroke-width=".05" fill="#3a414a"/><g><use xlink:href="#y" transform="matrix(1,0,0,1,1089.7777777777778,386.71814910084885) translate(0 14.222222222222223)"/></g><path d="M860.5 718.63h-1v-5.06h1zm0-10.1h-1V698.4h1zm0-15.18h-1v-10.1h1zm0-15.17h-1v-10.1h1zm0-15.16h-1v-9.35h1zm0-30.7h-1v-9.75h1zm0-14.8h-1v-10.1h1zm0-15.17h-1v-10.1h1zm0-15.16h-1v-10.13h1zm0-15.18h-1v-5.06h1z" stroke="#3a414a" stroke-width=".05" fill="#3a414a"/><path d="M860.5 566.98h-1v-.52h1z" fill="#3a414a"/><path d="M860.52 567h-1.04v-.56h1.04zm-1-.5v.45h.96v-.46zM870.6 701.6L860 719.53l-10.6-17.95.85-.5 9.75 16.47 9.75-16.48z" stroke="#3a414a" stroke-width=".05" fill="#3a414a"/><g><use xlink:href="#z" transform="matrix(1,0,0,1,828.9135802469136,632.3333937003598) translate(0 14.222222222222223)"/></g><path d="M860.5 858.63h-1v-4.65h1zm0-9.3h-1v-9.3h1zm0-13.96h-1v-9.3h1zm0-13.95h-1v-.75h1zm0-22.1h-1v-1.15h1zm0-5.8h-1v-9.3h1zm0-13.95h-1v-9.3h1zm0-13.96h-1v-4.64h1z" stroke="#3a414a" stroke-width=".05" fill="#3a414a"/><path d="M870.6 841.6L860 859.53l-10.6-17.95.85-.5 9.75 16.47 9.75-16.48z" stroke="#3a414a" stroke-width=".05" fill="#3a414a"/><path d="M860.5 760.98h-1v-.52h1z" fill="#3a414a"/><path d="M860.52 761h-1.04v-.56h1.04zm-1-.5v.45h.96v-.46z" stroke="#3a414a" stroke-width=".05" fill="#3a414a"/><g><use xlink:href="#A" transform="matrix(1,0,0,1,823.5555555555555,799.3333367495027) translate(0 14.222222222222223)"/></g><defs><path fill="#3a414a" d="M59-47c-2 24 18 29 38 22v24C64 9 27 4 27-40v-127H5v-23h24l9-43h21v43h35v23H59v120" id="B"/><path fill="#3a414a" d="M100-194c62-1 85 37 85 99 1 63-27 99-86 99S16-35 15-95c0-66 28-99 85-99zM99-20c44 1 53-31 53-75 0-43-8-75-51-75s-53 32-53 75 10 74 51 75" id="C"/><path fill="#3a414a" d="M143 0L79-87 56-68V0H24v-261h32v163l83-92h37l-77 82L181 0h-38" id="D"/><path fill="#3a414a" d="M100-194c63 0 86 42 84 106H49c0 40 14 67 53 68 26 1 43-12 49-29l28 8c-11 28-37 45-77 45C44 4 14-33 15-96c1-61 26-98 85-98zm52 81c6-60-76-77-97-28-3 7-6 17-6 28h103" id="E"/><path fill="#3a414a" d="M117-194c89-4 53 116 60 194h-32v-121c0-31-8-49-39-48C34-167 62-67 57 0H25l-1-190h30c1 10-1 24 2 32 11-22 29-35 61-36" id="F"/><path fill="#3a414a" d="M24-231v-30h32v30H24zM24 0v-190h32V0H24" id="G"/><path fill="#3a414a" d="M9 0v-24l116-142H16v-24h144v24L44-24h123V0H9" id="H"/><path fill="#3a414a" d="M85-194c31 0 48 13 60 33l-1-100h32l1 261h-30c-2-10 0-23-3-31C134-8 116 4 85 4 32 4 16-35 15-94c0-66 23-100 70-100zm9 24c-40 0-46 34-46 75 0 40 6 74 45 74 42 0 51-32 51-76 0-42-9-74-50-73" id="I"/><path fill="#3a414a" d="M-5 72V49h209v23H-5" id="J"/><path fill="#3a414a" d="M141 0L90-78 38 0H4l68-98-65-92h35l48 74 47-74h35l-64 92 68 98h-35" id="K"/><path fill="#3a414a" d="M33 0v-38h34V0H33" id="L"/><g id="a"><use transform="matrix(0.06172839506172839,0,0,0.06172839506172839,0,0)" xlink:href="#B"/><use transform="matrix(0.06172839506172839,0,0,0.06172839506172839,6.172839506172839,0)" xlink:href="#C"/><use transform="matrix(0.06172839506172839,0,0,0.06172839506172839,18.51851851851852,0)" xlink:href="#D"/><use transform="matrix(0.06172839506172839,0,0,0.06172839506172839,29.62962962962963,0)" xlink:href="#E"/><use transform="matrix(0.06172839506172839,0,0,0.06172839506172839,41.97530864197531,0)" xlink:href="#F"/><use transform="matrix(0.06172839506172839,0,0,0.06172839506172839,54.32098765432099,0)" xlink:href="#G"/><use transform="matrix(0.06172839506172839,0,0,0.06172839506172839,59.19753086419753,0)" xlink:href="#H"/><use transform="matrix(0.06172839506172839,0,0,0.06172839506172839,70.30864197530865,0)" xlink:href="#E"/><use transform="matrix(0.06172839506172839,0,0,0.06172839506172839,82.65432098765433,0)" xlink:href="#I"/><use transform="matrix(0.06172839506172839,0,0,0.06172839506172839,95.00000000000001,0)" xlink:href="#J"/><use transform="matrix(0.06172839506172839,0,0,0.06172839506172839,107.3456790123457,0)" xlink:href="#B"/><use transform="matrix(0.06172839506172839,0,0,0.06172839506172839,113.51851851851853,0)" xlink:href="#E"/><use transform="matrix(0.06172839506172839,0,0,0.06172839506172839,125.86419753086422,0)" xlink:href="#K"/><use transform="matrix(0.06172839506172839,0,0,0.06172839506172839,136.97530864197532,0)" xlink:href="#B"/><use transform="matrix(0.06172839506172839,0,0,0.06172839506172839,143.14814814814815,0)" xlink:href="#L"/><use transform="matrix(0.06172839506172839,0,0,0.06172839506172839,149.320987654321,0)" xlink:href="#B"/><use transform="matrix(0.06172839506172839,0,0,0.06172839506172839,155.49382716049382,0)" xlink:href="#K"/><use transform="matrix(0.06172839506172839,0,0,0.06172839506172839,166.60493827160494,0)" xlink:href="#B"/></g><path fill="#3a414a" d="M206 0h-36l-40-164L89 0H53L-1-190h32L70-26l43-164h34l41 164 42-164h31" id="M"/><path fill="#3a414a" d="M114-163C36-179 61-72 57 0H25l-1-190h30c1 12-1 29 2 39 6-27 23-49 58-41v29" id="N"/><path fill="#3a414a" d="M135-143c-3-34-86-38-87 0 15 53 115 12 119 90S17 21 10-45l28-5c4 36 97 45 98 0-10-56-113-15-118-90-4-57 82-63 122-42 12 7 21 19 24 35" id="O"/><g id="b"><use transform="matrix(0.06172839506172839,0,0,0.06172839506172839,0,0)" xlink:href="#M"/><use transform="matrix(0.06172839506172839,0,0,0.06172839506172839,15.987654320987653,0)" xlink:href="#C"/><use transform="matrix(0.06172839506172839,0,0,0.06172839506172839,28.333333333333332,0)" xlink:href="#N"/><use transform="matrix(0.06172839506172839,0,0,0.06172839506172839,35.67901234567901,0)" xlink:href="#I"/><use transform="matrix(0.06172839506172839,0,0,0.06172839506172839,48.02469135802469,0)" xlink:href="#O"/></g><path fill="#3a414a" d="M106-169C34-169 62-67 57 0H25v-261h32l-1 103c12-21 28-36 61-36 89 0 53 116 60 194h-32v-121c2-32-8-49-39-48" id="P"/><g id="c"><use transform="matrix(0.06172839506172839,0,0,0.06172839506172839,0,0)" xlink:href="#M"/><use transform="matrix(0.06172839506172839,0,0,0.06172839506172839,15.987654320987653,0)" xlink:href="#G"/><use transform="matrix(0.06172839506172839,0,0,0.06172839506172839,20.864197530864196,0)" xlink:href="#B"/><use transform="matrix(0.06172839506172839,0,0,0.06172839506172839,27.037037037037035,0)" xlink:href="#P"/></g><path fill="#3a414a" d="M141-36C126-15 110 5 73 4 37 3 15-17 15-53c-1-64 63-63 125-63 3-35-9-54-41-54-24 1-41 7-42 31l-33-3c5-37 33-52 76-52 45 0 72 20 72 64v82c-1 20 7 32 28 27v20c-31 9-61-2-59-35zM48-53c0 20 12 33 32 33 41-3 63-29 60-74-43 2-92-5-92 41" id="Q"/><path fill="#3a414a" d="M177-190C167-65 218 103 67 71c-23-6-38-20-44-43l32-5c15 47 100 32 89-28v-30C133-14 115 1 83 1 29 1 15-40 15-95c0-56 16-97 71-98 29-1 48 16 59 35 1-10 0-23 2-32h30zM94-22c36 0 50-32 50-73 0-42-14-75-50-75-39 0-46 34-46 75s6 73 46 73" id="R"/><path fill="#3a414a" d="M87 75C49 33 22-17 22-94c0-76 28-126 65-167h31c-38 41-64 92-64 168S80 34 118 75H87" id="S"/><path fill="#3a414a" d="M108 0H70L1-190h34L89-25l56-165h34" id="T"/><path fill="#3a414a" d="M115-194c53 0 69 39 70 98 0 66-23 100-70 100C84 3 66-7 56-30L54 0H23l1-261h32v101c10-23 28-34 59-34zm-8 174c40 0 45-34 45-75 0-40-5-75-45-74-42 0-51 32-51 76 0 43 10 73 51 73" id="U"/><path fill="#3a414a" d="M68-38c1 34 0 65-14 84H32c9-13 17-26 17-46H33v-38h35" id="V"/><g id="d"><use transform="matrix(0.06172839506172839,0,0,0.06172839506172839,0,0)" xlink:href="#B"/><use transform="matrix(0.06172839506172839,0,0,0.06172839506172839,6.172839506172839,0)" xlink:href="#Q"/><use transform="matrix(0.06172839506172839,0,0,0.06172839506172839,18.51851851851852,0)" xlink:href="#R"/><use transform="matrix(0.06172839506172839,0,0,0.06172839506172839,30.864197530864196,0)" xlink:href="#O"/><use transform="matrix(0.06172839506172839,0,0,0.06172839506172839,41.9753086419753,0)" xlink:href="#S"/><use transform="matrix(0.06172839506172839,0,0,0.06172839506172839,49.32098765432098,0)" xlink:href="#T"/><use transform="matrix(0.06172839506172839,0,0,0.06172839506172839,60.43209876543209,0)" xlink:href="#E"/><use transform="matrix(0.06172839506172839,0,0,0.06172839506172839,72.77777777777777,0)" xlink:href="#N"/><use transform="matrix(0.06172839506172839,0,0,0.06172839506172839,80.12345679012346,0)" xlink:href="#U"/><use transform="matrix(0.06172839506172839,0,0,0.06172839506172839,92.46913580246914,0)" xlink:href="#V"/></g><path fill="#3a414a" d="M84 4C-5 8 30-112 23-190h32v120c0 31 7 50 39 49 72-2 45-101 50-169h31l1 190h-30c-1-10 1-25-2-33-11 22-28 36-60 37" id="W"/><g id="e"><use transform="matrix(0.06172839506172839,0,0,0.06172839506172839,0,0)" xlink:href="#F"/><use transform="matrix(0.06172839506172839,0,0,0.06172839506172839,12.345679012345679,0)" xlink:href="#C"/><use transform="matrix(0.06172839506172839,0,0,0.06172839506172839,24.691358024691358,0)" xlink:href="#W"/><use transform="matrix(0.06172839506172839,0,0,0.06172839506172839,37.03703703703704,0)" xlink:href="#F"/><use transform="matrix(0.06172839506172839,0,0,0.06172839506172839,49.382716049382715,0)" xlink:href="#V"/></g><path fill="#3a414a" d="M96-169c-40 0-48 33-48 73s9 75 48 75c24 0 41-14 43-38l32 2c-6 37-31 61-74 61-59 0-76-41-82-99-10-93 101-131 147-64 4 7 5 14 7 22l-32 3c-4-21-16-35-41-35" id="X"/><path fill="#3a414a" d="M33-261c38 41 65 92 65 168S71 34 33 75H2C39 34 66-17 66-93S39-220 2-261h31" id="Y"/><g id="f"><use transform="matrix(0.06172839506172839,0,0,0.06172839506172839,0,0)" xlink:href="#E"/><use transform="matrix(0.06172839506172839,0,0,0.06172839506172839,12.345679012345679,0)" xlink:href="#B"/><use transform="matrix(0.06172839506172839,0,0,0.06172839506172839,18.51851851851852,0)" xlink:href="#X"/><use transform="matrix(0.06172839506172839,0,0,0.06172839506172839,29.62962962962963,0)" xlink:href="#Y"/></g><path fill="#3a414a" d="M185-189c-5-48-123-54-124 2 14 75 158 14 163 119 3 78-121 87-175 55-17-10-28-26-33-46l33-7c5 56 141 63 141-1 0-78-155-14-162-118-5-82 145-84 179-34 5 7 8 16 11 25" id="Z"/><path fill="#3a414a" d="M210-169c-67 3-38 105-44 169h-31v-121c0-29-5-50-35-48C34-165 62-65 56 0H25l-1-190h30c1 10-1 24 2 32 10-44 99-50 107 0 11-21 27-35 58-36 85-2 47 119 55 194h-31v-121c0-29-5-49-35-48" id="aa"/><g id="g"><use transform="matrix(0.06172839506172839,0,0,0.06172839506172839,0,0)" xlink:href="#Z"/><use transform="matrix(0.06172839506172839,0,0,0.06172839506172839,14.814814814814813,0)" xlink:href="#E"/><use transform="matrix(0.06172839506172839,0,0,0.06172839506172839,27.160493827160494,0)" xlink:href="#aa"/><use transform="matrix(0.06172839506172839,0,0,0.06172839506172839,45.61728395061728,0)" xlink:href="#Q"/><use transform="matrix(0.06172839506172839,0,0,0.06172839506172839,57.962962962962955,0)" xlink:href="#F"/><use transform="matrix(0.06172839506172839,0,0,0.06172839506172839,70.30864197530863,0)" xlink:href="#B"/><use transform="matrix(0.06172839506172839,0,0,0.06172839506172839,76.48148148148147,0)" xlink:href="#G"/><use transform="matrix(0.06172839506172839,0,0,0.06172839506172839,81.35802469135801,0)" xlink:href="#X"/></g><path fill="#3a414a" d="M205 0l-28-72H64L36 0H1l101-248h38L239 0h-34zm-38-99l-47-123c-12 45-31 82-46 123h93" id="ab"/><path fill="#3a414a" d="M24 0v-261h32V0H24" id="ac"/><path fill="#3a414a" d="M179-190L93 31C79 59 56 82 12 73V49c39 6 53-20 64-50L1-190h34L92-34l54-156h33" id="ad"/><g id="h"><use transform="matrix(0.06172839506172839,0,0,0.06172839506172839,0,0)" xlink:href="#ab"/><use transform="matrix(0.06172839506172839,0,0,0.06172839506172839,14.814814814814813,0)" xlink:href="#F"/><use transform="matrix(0.06172839506172839,0,0,0.06172839506172839,27.160493827160494,0)" xlink:href="#Q"/><use transform="matrix(0.06172839506172839,0,0,0.06172839506172839,39.50617283950617,0)" xlink:href="#ac"/><use transform="matrix(0.06172839506172839,0,0,0.06172839506172839,44.382716049382715,0)" xlink:href="#ad"/><use transform="matrix(0.06172839506172839,0,0,0.06172839506172839,55.49382716049382,0)" xlink:href="#H"/><use transform="matrix(0.06172839506172839,0,0,0.06172839506172839,66.60493827160494,0)" xlink:href="#E"/><use transform="matrix(0.06172839506172839,0,0,0.06172839506172839,78.95061728395062,0)" xlink:href="#N"/></g><path fill="#3a414a" d="M212-179c-10-28-35-45-73-45-59 0-87 40-87 99 0 60 29 101 89 101 43 0 62-24 78-52l27 14C228-24 195 4 139 4 59 4 22-46 18-125c-6-104 99-153 187-111 19 9 31 26 39 46" id="ae"/><g id="i"><use transform="matrix(0.06172839506172839,0,0,0.06172839506172839,0,0)" xlink:href="#ae"/><use transform="matrix(0.06172839506172839,0,0,0.06172839506172839,15.987654320987653,0)" xlink:href="#ac"/><use transform="matrix(0.06172839506172839,0,0,0.06172839506172839,20.864197530864196,0)" xlink:href="#Q"/><use transform="matrix(0.06172839506172839,0,0,0.06172839506172839,33.20987654320987,0)" xlink:href="#O"/><use transform="matrix(0.06172839506172839,0,0,0.06172839506172839,44.32098765432099,0)" xlink:href="#O"/></g><path fill="#3a414a" d="M30-248c118-7 216 8 213 122C240-48 200 0 122 0H30v-248zM63-27c89 8 146-16 146-99s-60-101-146-95v194" id="af"/><g id="j"><use transform="matrix(0.06172839506172839,0,0,0.06172839506172839,0,0)" xlink:href="#af"/><use transform="matrix(0.06172839506172839,0,0,0.06172839506172839,15.987654320987653,0)" xlink:href="#G"/><use transform="matrix(0.06172839506172839,0,0,0.06172839506172839,20.864197530864196,0)" xlink:href="#Q"/><use transform="matrix(0.06172839506172839,0,0,0.06172839506172839,33.20987654320987,0)" xlink:href="#R"/><use transform="matrix(0.06172839506172839,0,0,0.06172839506172839,45.55555555555555,0)" xlink:href="#N"/><use transform="matrix(0.06172839506172839,0,0,0.06172839506172839,52.90123456790123,0)" xlink:href="#Q"/><use transform="matrix(0.06172839506172839,0,0,0.06172839506172839,65.24691358024691,0)" xlink:href="#aa"/></g><path fill="#3a414a" d="M30-248c87 1 191-15 191 75 0 78-77 80-158 76V0H30v-248zm33 125c57 0 124 11 124-50 0-59-68-47-124-48v98" id="ag"/><g id="k"><use transform="matrix(0.06172839506172839,0,0,0.06172839506172839,0,0)" xlink:href="#ag"/><use transform="matrix(0.06172839506172839,0,0,0.06172839506172839,14.814814814814813,0)" xlink:href="#N"/><use transform="matrix(0.06172839506172839,0,0,0.06172839506172839,22.160493827160494,0)" xlink:href="#C"/><use transform="matrix(0.06172839506172839,0,0,0.06172839506172839,34.50617283950617,0)" xlink:href="#R"/><use transform="matrix(0.06172839506172839,0,0,0.06172839506172839,46.85185185185185,0)" xlink:href="#N"/><use transform="matrix(0.06172839506172839,0,0,0.06172839506172839,54.197530864197525,0)" xlink:href="#Q"/><use transform="matrix(0.06172839506172839,0,0,0.06172839506172839,66.5432098765432,0)" xlink:href="#aa"/></g><path d="M63-220v92h138v28H63V0H30v-248h175v28H63" id="ah"/><path d="M24-231v-30h32v30H24zM24 0v-190h32V0H24" id="ai"/><path d="M24 0v-261h32V0H24" id="aj"/><path d="M100-194c63 0 86 42 84 106H49c0 40 14 67 53 68 26 1 43-12 49-29l28 8c-11 28-37 45-77 45C44 4 14-33 15-96c1-61 26-98 85-98zm52 81c6-60-76-77-97-28-3 7-6 17-6 28h103" id="ak"/><path d="M140-251c81 0 123 46 123 126C263-46 219 4 140 4 59 4 17-45 17-125s42-126 123-126zm0 227c63 0 89-41 89-101s-29-99-89-99c-61 0-89 39-89 99S79-25 140-24" id="al"/><path d="M115-194c55 1 70 41 70 98S169 2 115 4C84 4 66-9 55-30l1 105H24l-1-265h31l2 30c10-21 28-34 59-34zm-8 174c40 0 45-34 45-75s-6-73-45-74c-42 0-51 32-51 76 0 43 10 73 51 73" id="am"/><path d="M114-163C36-179 61-72 57 0H25l-1-190h30c1 12-1 29 2 39 6-27 23-49 58-41v29" id="an"/><path d="M141-36C126-15 110 5 73 4 37 3 15-17 15-53c-1-64 63-63 125-63 3-35-9-54-41-54-24 1-41 7-42 31l-33-3c5-37 33-52 76-52 45 0 72 20 72 64v82c-1 20 7 32 28 27v20c-31 9-61-2-59-35zM48-53c0 20 12 33 32 33 41-3 63-29 60-74-43 2-92-5-92 41" id="ao"/><path d="M59-47c-2 24 18 29 38 22v24C64 9 27 4 27-40v-127H5v-23h24l9-43h21v43h35v23H59v120" id="ap"/><path d="M100-194c62-1 85 37 85 99 1 63-27 99-86 99S16-35 15-95c0-66 28-99 85-99zM99-20c44 1 53-31 53-75 0-43-8-75-51-75s-53 32-53 75 10 74 51 75" id="aq"/><path d="M117-194c89-4 53 116 60 194h-32v-121c0-31-8-49-39-48C34-167 62-67 57 0H25l-1-190h30c1 10-1 24 2 32 11-22 29-35 61-36" id="ar"/><path d="M135-143c-3-34-86-38-87 0 15 53 115 12 119 90S17 21 10-45l28-5c4 36 97 45 98 0-10-56-113-15-118-90-4-57 82-63 122-42 12 7 21 19 24 35" id="as"/><g id="l"><use transform="matrix(0.05925925925925927,0,0,0.05925925925925927,0,0)" xlink:href="#ah"/><use transform="matrix(0.05925925925925927,0,0,0.05925925925925927,12.97777777777778,0)" xlink:href="#ai"/><use transform="matrix(0.05925925925925927,0,0,0.05925925925925927,17.65925925925926,0)" xlink:href="#aj"/><use transform="matrix(0.05925925925925927,0,0,0.05925925925925927,22.340740740740742,0)" xlink:href="#ak"/><use transform="matrix(0.05925925925925927,0,0,0.05925925925925927,34.1925925925926,0)" xlink:href="#al"/><use transform="matrix(0.05925925925925927,0,0,0.05925925925925927,50.78518518518519,0)" xlink:href="#am"/><use transform="matrix(0.05925925925925927,0,0,0.05925925925925927,62.63703703703705,0)" xlink:href="#ak"/><use transform="matrix(0.05925925925925927,0,0,0.05925925925925927,74.4888888888889,0)" xlink:href="#an"/><use transform="matrix(0.05925925925925927,0,0,0.05925925925925927,81.54074074074074,0)" xlink:href="#ao"/><use transform="matrix(0.05925925925925927,0,0,0.05925925925925927,93.39259259259259,0)" xlink:href="#ap"/><use transform="matrix(0.05925925925925927,0,0,0.05925925925925927,99.31851851851852,0)" xlink:href="#ai"/><use transform="matrix(0.05925925925925927,0,0,0.05925925925925927,104,0)" xlink:href="#aq"/><use transform="matrix(0.05925925925925927,0,0,0.05925925925925927,115.85185185185185,0)" xlink:href="#ar"/><use transform="matrix(0.05925925925925927,0,0,0.05925925925925927,127.7037037037037,0)" xlink:href="#as"/></g><path fill="#3a414a" d="M118-107v75H92v-75H18v-26h74v-75h26v75h74v26h-74" id="at"/><use transform="matrix(0.06172839506172839,0,0,0.06172839506172839,0,0)" xlink:href="#at" id="m"/><path d="M85-194c31 0 48 13 60 33l-1-100h32l1 261h-30c-2-10 0-23-3-31C134-8 116 4 85 4 32 4 16-35 15-94c0-66 23-100 70-100zm9 24c-40 0-46 34-46 75 0 40 6 74 45 74 42 0 51-32 51-76 0-42-9-74-50-73" id="au"/><path d="M210-169c-67 3-38 105-44 169h-31v-121c0-29-5-50-35-48C34-165 62-65 56 0H25l-1-190h30c1 10-1 24 2 32 10-44 99-50 107 0 11-21 27-35 58-36 85-2 47 119 55 194h-31v-121c0-29-5-49-35-48" id="av"/><path d="M87 75C49 33 22-17 22-94c0-76 28-126 65-167h31c-38 41-64 92-64 168S80 34 118 75H87" id="aw"/><path d="M101-234c-31-9-42 10-38 44h38v23H63V0H32v-167H5v-23h27c-7-52 17-82 69-68v24" id="ax"/><path d="M33-261c38 41 65 92 65 168S71 34 33 75H2C39 34 66-17 66-93S39-220 2-261h31" id="ay"/><path fill="#3a414a" d="M33-154v-36h34v36H33zM33 0v-36h34V0H33" id="az"/><g id="n"><use transform="matrix(0.05678999999999999,0,0,0.05678999999999999,0,0)" xlink:href="#an"/><use transform="matrix(0.05678999999999999,0,0,0.05678999999999999,6.75801,0)" xlink:href="#ak"/><use transform="matrix(0.05678999999999999,0,0,0.05678999999999999,18.11601,0)" xlink:href="#ao"/><use transform="matrix(0.05678999999999999,0,0,0.05678999999999999,29.474010000000003,0)" xlink:href="#au"/><use transform="matrix(0.05678999999999999,0,0,0.05678999999999999,40.83201,0)" xlink:href="#ah"/><use transform="matrix(0.05678999999999999,0,0,0.05678999999999999,53.26902,0)" xlink:href="#an"/><use transform="matrix(0.05678999999999999,0,0,0.05678999999999999,60.027029999999996,0)" xlink:href="#aq"/><use transform="matrix(0.05678999999999999,0,0,0.05678999999999999,71.38503,0)" xlink:href="#av"/><use transform="matrix(0.05678999999999999,0,0,0.05678999999999999,88.36524,0)" xlink:href="#ah"/><use transform="matrix(0.05678999999999999,0,0,0.05678999999999999,100.80225,0)" xlink:href="#ai"/><use transform="matrix(0.05678999999999999,0,0,0.05678999999999999,105.28866,0)" xlink:href="#aj"/><use transform="matrix(0.05678999999999999,0,0,0.05678999999999999,109.77507,0)" xlink:href="#ak"/><use transform="matrix(0.05925925925925927,0,0,0.05925925925925927,121.13307,0)" xlink:href="#aw"/><use transform="matrix(0.05925925925925927,0,0,0.05925925925925927,128.18492185185187,0)" xlink:href="#ax"/><use transform="matrix(0.05925925925925927,0,0,0.05925925925925927,134.1108477777778,0)" xlink:href="#ai"/><use transform="matrix(0.05925925925925927,0,0,0.05925925925925927,138.79232925925928,0)" xlink:href="#aj"/><use transform="matrix(0.05925925925925927,0,0,0.05925925925925927,143.47381074074076,0)" xlink:href="#ak"/><use transform="matrix(0.05925925925925927,0,0,0.05925925925925927,155.3256625925926,0)" xlink:href="#ay"/><use transform="matrix(0.06172839506172839,0,0,0.06172839506172839,162.37751444444447,0)" xlink:href="#az"/><use transform="matrix(0.06172839506172839,0,0,0.06172839506172839,168.5503539506173,0)" xlink:href="#O"/><use transform="matrix(0.06172839506172839,0,0,0.06172839506172839,179.66146506172842,0)" xlink:href="#B"/><use transform="matrix(0.06172839506172839,0,0,0.06172839506172839,185.83430456790126,0)" xlink:href="#N"/><use transform="matrix(0.06172839506172839,0,0,0.06172839506172839,193.17998358024693,0)" xlink:href="#G"/><use transform="matrix(0.06172839506172839,0,0,0.06172839506172839,198.05652679012346,0)" xlink:href="#F"/><use transform="matrix(0.06172839506172839,0,0,0.06172839506172839,210.40220580246913,0)" xlink:href="#R"/></g><path d="M206 0h-36l-40-164L89 0H53L-1-190h32L70-26l43-164h34l41 164 42-164h31" id="aA"/><path d="M127-220V0H93v-220H8v-28h204v28h-85" id="aB"/><path d="M177-190C167-65 218 103 67 71c-23-6-38-20-44-43l32-5c15 47 100 32 89-28v-30C133-14 115 1 83 1 29 1 15-40 15-95c0-56 16-97 71-98 29-1 48 16 59 35 1-10 0-23 2-32h30zM94-22c36 0 50-32 50-73 0-42-14-75-50-75-39 0-46 34-46 75s6 73 46 73" id="aC"/><g id="o"><use transform="matrix(0.05925925925925927,0,0,0.05925925925925927,0,0)" xlink:href="#aA"/><use transform="matrix(0.05925925925925927,0,0,0.05925925925925927,15.34814814814815,0)" xlink:href="#an"/><use transform="matrix(0.05925925925925927,0,0,0.05925925925925927,22.400000000000002,0)" xlink:href="#ai"/><use transform="matrix(0.05925925925925927,0,0,0.05925925925925927,27.081481481481482,0)" xlink:href="#ap"/><use transform="matrix(0.05925925925925927,0,0,0.05925925925925927,33.007407407407406,0)" xlink:href="#ak"/><use transform="matrix(0.05925925925925927,0,0,0.05925925925925927,44.85925925925926,0)" xlink:href="#aB"/><use transform="matrix(0.05925925925925927,0,0,0.05925925925925927,55.46666666666667,0)" xlink:href="#aq"/><use transform="matrix(0.05925925925925927,0,0,0.05925925925925927,67.31851851851852,0)" xlink:href="#ah"/><use transform="matrix(0.05925925925925927,0,0,0.05925925925925927,80.29629629629629,0)" xlink:href="#ai"/><use transform="matrix(0.05925925925925927,0,0,0.05925925925925927,84.97777777777777,0)" xlink:href="#aj"/><use transform="matrix(0.05925925925925927,0,0,0.05925925925925927,89.65925925925926,0)" xlink:href="#ak"/><use transform="matrix(0.05925925925925927,0,0,0.05925925925925927,101.5111111111111,0)" xlink:href="#aw"/><use transform="matrix(0.05925925925925927,0,0,0.05925925925925927,108.56296296296296,0)" xlink:href="#as"/><use transform="matrix(0.05925925925925927,0,0,0.05925925925925927,119.22962962962963,0)" xlink:href="#ap"/><use transform="matrix(0.05925925925925927,0,0,0.05925925925925927,125.15555555555555,0)" xlink:href="#an"/><use transform="matrix(0.05925925925925927,0,0,0.05925925925925927,132.2074074074074,0)" xlink:href="#ai"/><use transform="matrix(0.05925925925925927,0,0,0.05925925925925927,136.88888888888889,0)" xlink:href="#ar"/><use transform="matrix(0.05925925925925927,0,0,0.05925925925925927,148.74074074074073,0)" xlink:href="#aC"/></g><path d="M143 0L79-87 56-68V0H24v-261h32v163l83-92h37l-77 82L181 0h-38" id="aD"/><path d="M33-154v-36h34v36H33zM33 0v-36h34V0H33" id="aE"/><path d="M108 0H70L1-190h34L89-25l56-165h34" id="aF"/><g id="p"><use transform="matrix(0.05925925925925927,0,0,0.05925925925925927,0,0)" xlink:href="#ap"/><use transform="matrix(0.05925925925925927,0,0,0.05925925925925927,5.9259259259259265,0)" xlink:href="#aq"/><use transform="matrix(0.05925925925925927,0,0,0.05925925925925927,17.77777777777778,0)" xlink:href="#aD"/><use transform="matrix(0.05925925925925927,0,0,0.05925925925925927,28.444444444444446,0)" xlink:href="#ak"/><use transform="matrix(0.05925925925925927,0,0,0.05925925925925927,40.2962962962963,0)" xlink:href="#ar"/><use transform="matrix(0.05925925925925927,0,0,0.05925925925925927,52.14814814814815,0)" xlink:href="#as"/><use transform="matrix(0.05925925925925927,0,0,0.05925925925925927,62.814814814814824,0)" xlink:href="#ay"/><use transform="matrix(0.05925925925925927,0,0,0.05925925925925927,69.86666666666667,0)" xlink:href="#aE"/><use transform="matrix(0.05925925925925927,0,0,0.05925925925925927,75.7925925925926,0)" xlink:href="#aF"/><use transform="matrix(0.05925925925925927,0,0,0.05925925925925927,86.45925925925927,0)" xlink:href="#aq"/><use transform="matrix(0.05925925925925927,0,0,0.05925925925925927,98.31111111111112,0)" xlink:href="#ai"/><use transform="matrix(0.05925925925925927,0,0,0.05925925925925927,102.9925925925926,0)" xlink:href="#au"/></g><path d="M118-107v75H92v-75H18v-26h74v-75h26v75h74v26h-74" id="aG"/><use transform="matrix(0.05925925925925927,0,0,0.05925925925925927,0,0)" xlink:href="#aG" id="q"/><g id="r"><use transform="matrix(0.05925925925925927,0,0,0.05925925925925927,0,0)" xlink:href="#am"/><use transform="matrix(0.05925925925925927,0,0,0.05925925925925927,11.851851851851853,0)" xlink:href="#an"/><use transform="matrix(0.05925925925925927,0,0,0.05925925925925927,18.903703703703705,0)" xlink:href="#ai"/><use transform="matrix(0.05925925925925927,0,0,0.05925925925925927,23.58518518518519,0)" xlink:href="#ar"/><use transform="matrix(0.05925925925925927,0,0,0.05925925925925927,35.437037037037044,0)" xlink:href="#ap"/><use transform="matrix(0.05925925925925927,0,0,0.05925925925925927,41.36296296296297,0)" xlink:href="#ah"/><use transform="matrix(0.05925925925925927,0,0,0.05925925925925927,54.34074074074075,0)" xlink:href="#ai"/><use transform="matrix(0.05925925925925927,0,0,0.05925925925925927,59.02222222222223,0)" xlink:href="#aj"/><use transform="matrix(0.05925925925925927,0,0,0.05925925925925927,63.70370370370372,0)" xlink:href="#ak"/><use transform="matrix(0.05925925925925927,0,0,0.05925925925925927,75.55555555555557,0)" xlink:href="#aw"/><use transform="matrix(0.05925925925925927,0,0,0.05925925925925927,82.60740740740742,0)" xlink:href="#ax"/><use transform="matrix(0.05925925925925927,0,0,0.05925925925925927,88.53333333333335,0)" xlink:href="#ai"/><use transform="matrix(0.05925925925925927,0,0,0.05925925925925927,93.21481481481483,0)" xlink:href="#aj"/><use transform="matrix(0.05925925925925927,0,0,0.05925925925925927,97.89629629629631,0)" xlink:href="#ak"/><use transform="matrix(0.05925925925925927,0,0,0.05925925925925927,109.74814814814816,0)" xlink:href="#ay"/><use transform="matrix(0.05925925925925927,0,0,0.05925925925925927,116.80000000000001,0)" xlink:href="#aE"/><use transform="matrix(0.05925925925925927,0,0,0.05925925925925927,122.72592592592595,0)" xlink:href="#aF"/><use transform="matrix(0.05925925925925927,0,0,0.05925925925925927,133.3925925925926,0)" xlink:href="#aq"/><use transform="matrix(0.05925925925925927,0,0,0.05925925925925927,145.24444444444444,0)" xlink:href="#ai"/><use transform="matrix(0.05925925925925927,0,0,0.05925925925925927,149.92592592592592,0)" xlink:href="#au"/></g><path d="M9 0v-24l116-142H16v-24h144v24L44-24h123V0H9" id="aH"/><g id="s"><use transform="matrix(0.05925925925925927,0,0,0.05925925925925927,0,0)" xlink:href="#aB"/><use transform="matrix(0.05925925925925927,0,0,0.05925925925925927,10.60740740740741,0)" xlink:href="#aq"/><use transform="matrix(0.05925925925925927,0,0,0.05925925925925927,22.459259259259262,0)" xlink:href="#aD"/><use transform="matrix(0.05925925925925927,0,0,0.05925925925925927,33.12592592592593,0)" xlink:href="#ak"/><use transform="matrix(0.05925925925925927,0,0,0.05925925925925927,44.97777777777778,0)" xlink:href="#ar"/><use transform="matrix(0.05925925925925927,0,0,0.05925925925925927,56.829629629629636,0)" xlink:href="#ai"/><use transform="matrix(0.05925925925925927,0,0,0.05925925925925927,61.51111111111112,0)" xlink:href="#aH"/><use transform="matrix(0.05925925925925927,0,0,0.05925925925925927,72.17777777777779,0)" xlink:href="#ak"/><use transform="matrix(0.05925925925925927,0,0,0.05925925925925927,84.02962962962964,0)" xlink:href="#an"/></g><path d="M185-189c-5-48-123-54-124 2 14 75 158 14 163 119 3 78-121 87-175 55-17-10-28-26-33-46l33-7c5 56 141 63 141-1 0-78-155-14-162-118-5-82 145-84 179-34 5 7 8 16 11 25" id="aI"/><path d="M96-169c-40 0-48 33-48 73s9 75 48 75c24 0 41-14 43-38l32 2c-6 37-31 61-74 61-59 0-76-41-82-99-10-93 101-131 147-64 4 7 5 14 7 22l-32 3c-4-21-16-35-41-35" id="aJ"/><path d="M-5 72V49h209v23H-5" id="aK"/><path d="M141 0L90-78 38 0H4l68-98-65-92h35l48 74 47-74h35l-64 92 68 98h-35" id="aL"/><g id="t"><use transform="matrix(0.05678999999999999,0,0,0.05678999999999999,0,0)" xlink:href="#ap"/><use transform="matrix(0.05678999999999999,0,0,0.05678999999999999,5.678999999999999,0)" xlink:href="#aq"/><use transform="matrix(0.05678999999999999,0,0,0.05678999999999999,17.037,0)" xlink:href="#aD"/><use transform="matrix(0.05678999999999999,0,0,0.05678999999999999,27.2592,0)" xlink:href="#ak"/><use transform="matrix(0.05678999999999999,0,0,0.05678999999999999,38.6172,0)" xlink:href="#ar"/><use transform="matrix(0.05678999999999999,0,0,0.05678999999999999,49.975199999999994,0)" xlink:href="#ai"/><use transform="matrix(0.05678999999999999,0,0,0.05678999999999999,54.46160999999999,0)" xlink:href="#aH"/><use transform="matrix(0.05678999999999999,0,0,0.05678999999999999,64.68381,0)" xlink:href="#ak"/><use transform="matrix(0.05678999999999999,0,0,0.05678999999999999,76.04181,0)" xlink:href="#aI"/><use transform="matrix(0.05678999999999999,0,0,0.05678999999999999,89.67141,0)" xlink:href="#ak"/><use transform="matrix(0.05678999999999999,0,0,0.05678999999999999,101.02941,0)" xlink:href="#ar"/><use transform="matrix(0.05678999999999999,0,0,0.05678999999999999,112.38741,0)" xlink:href="#ap"/><use transform="matrix(0.05678999999999999,0,0,0.05678999999999999,118.06641,0)" xlink:href="#ak"/><use transform="matrix(0.05678999999999999,0,0,0.05678999999999999,129.42441,0)" xlink:href="#ar"/><use transform="matrix(0.05678999999999999,0,0,0.05678999999999999,140.78241,0)" xlink:href="#aJ"/><use transform="matrix(0.05678999999999999,0,0,0.05678999999999999,151.00460999999999,0)" xlink:href="#ak"/><use transform="matrix(0.05678999999999999,0,0,0.05678999999999999,162.36261,0)" xlink:href="#as"/><use transform="matrix(0.05925925925925927,0,0,0.05925925925925927,172.58480999999998,0)" xlink:href="#aw"/><use transform="matrix(0.05925925925925927,0,0,0.05925925925925927,179.63666185185184,0)" xlink:href="#an"/><use transform="matrix(0.05925925925925927,0,0,0.05925925925925927,186.6885137037037,0)" xlink:href="#ao"/><use transform="matrix(0.05925925925925927,0,0,0.05925925925925927,198.54036555555555,0)" xlink:href="#aA"/><use transform="matrix(0.05925925925925927,0,0,0.05925925925925927,213.8885137037037,0)" xlink:href="#aK"/><use transform="matrix(0.05925925925925927,0,0,0.05925925925925927,225.74036555555554,0)" xlink:href="#ap"/><use transform="matrix(0.05925925925925927,0,0,0.05925925925925927,231.66629148148147,0)" xlink:href="#ak"/><use transform="matrix(0.05925925925925927,0,0,0.05925925925925927,243.51814333333334,0)" xlink:href="#aL"/><use transform="matrix(0.05925925925925927,0,0,0.05925925925925927,254.18480999999994,0)" xlink:href="#ap"/><use transform="matrix(0.05925925925925927,0,0,0.05925925925925927,260.1107359259259,0)" xlink:href="#aE"/></g><g id="u"><use transform="matrix(0.05925925925925927,0,0,0.05925925925925927,0,0)" xlink:href="#as"/><use transform="matrix(0.05925925925925927,0,0,0.05925925925925927,10.666666666666668,0)" xlink:href="#ap"/><use transform="matrix(0.05925925925925927,0,0,0.05925925925925927,16.592592592592595,0)" xlink:href="#an"/><use transform="matrix(0.05925925925925927,0,0,0.05925925925925927,23.64444444444445,0)" xlink:href="#ay"/><use transform="matrix(0.05925925925925927,0,0,0.05925925925925927,30.6962962962963,0)" xlink:href="#aE"/><use transform="matrix(0.05925925925925927,0,0,0.05925925925925927,36.62222222222223,0)" xlink:href="#as"/><use transform="matrix(0.05925925925925927,0,0,0.05925925925925927,47.28888888888889,0)" xlink:href="#ap"/><use transform="matrix(0.05925925925925927,0,0,0.05925925925925927,53.214814814814815,0)" xlink:href="#an"/><use transform="matrix(0.05925925925925927,0,0,0.05925925925925927,60.266666666666666,0)" xlink:href="#ai"/><use transform="matrix(0.05925925925925927,0,0,0.05925925925925927,64.94814814814815,0)" xlink:href="#ar"/><use transform="matrix(0.05925925925925927,0,0,0.05925925925925927,76.8,0)" xlink:href="#aC"/></g><use transform="matrix(0.05925925925925927,0,0,0.05925925925925927,0,0)" xlink:href="#aG" id="v"/><g id="w"><use transform="matrix(0.05678999999999999,0,0,0.05678999999999999,0,0)" xlink:href="#ap"/><use transform="matrix(0.05678999999999999,0,0,0.05678999999999999,5.678999999999999,0)" xlink:href="#aq"/><use transform="matrix(0.05678999999999999,0,0,0.05678999999999999,17.037,0)" xlink:href="#aD"/><use transform="matrix(0.05678999999999999,0,0,0.05678999999999999,27.2592,0)" xlink:href="#ak"/><use transform="matrix(0.05678999999999999,0,0,0.05678999999999999,38.6172,0)" xlink:href="#ar"/><use transform="matrix(0.05678999999999999,0,0,0.05678999999999999,49.975199999999994,0)" xlink:href="#ai"/><use transform="matrix(0.05678999999999999,0,0,0.05678999999999999,54.46160999999999,0)" xlink:href="#aH"/><use transform="matrix(0.05678999999999999,0,0,0.05678999999999999,64.68381,0)" xlink:href="#ak"/><use transform="matrix(0.05678999999999999,0,0,0.05678999999999999,76.04181,0)" xlink:href="#aK"/><use transform="matrix(0.05678999999999999,0,0,0.05678999999999999,87.39981,0)" xlink:href="#aA"/><use transform="matrix(0.05678999999999999,0,0,0.05678999999999999,102.10842,0)" xlink:href="#aq"/><use transform="matrix(0.05678999999999999,0,0,0.05678999999999999,113.46642,0)" xlink:href="#an"/><use transform="matrix(0.05678999999999999,0,0,0.05678999999999999,120.22442999999998,0)" xlink:href="#au"/><use transform="matrix(0.05678999999999999,0,0,0.05678999999999999,131.58243,0)" xlink:href="#as"/><use transform="matrix(0.05678999999999999,0,0,0.05678999999999999,141.80462999999997,0)" xlink:href="#aw"/><use transform="matrix(0.05678999999999999,0,0,0.05678999999999999,148.56264,0)" xlink:href="#as"/><use transform="matrix(0.05678999999999999,0,0,0.05678999999999999,158.78483999999997,0)" xlink:href="#ak"/><use transform="matrix(0.05678999999999999,0,0,0.05678999999999999,170.14283999999998,0)" xlink:href="#ar"/><use transform="matrix(0.05678999999999999,0,0,0.05678999999999999,181.50083999999998,0)" xlink:href="#ap"/><use transform="matrix(0.05678999999999999,0,0,0.05678999999999999,187.17983999999998,0)" xlink:href="#ak"/><use transform="matrix(0.05678999999999999,0,0,0.05678999999999999,198.53784,0)" xlink:href="#ar"/><use transform="matrix(0.05678999999999999,0,0,0.05678999999999999,209.89584,0)" xlink:href="#aJ"/><use transform="matrix(0.05678999999999999,0,0,0.05678999999999999,220.11803999999998,0)" xlink:href="#ak"/><use transform="matrix(0.05678999999999999,0,0,0.05678999999999999,231.47603999999998,0)" xlink:href="#aK"/><use transform="matrix(0.05678999999999999,0,0,0.05678999999999999,242.83403999999996,0)" xlink:href="#aj"/><use transform="matrix(0.05678999999999999,0,0,0.05678999999999999,247.32044999999997,0)" xlink:href="#ai"/><use transform="matrix(0.05678999999999999,0,0,0.05678999999999999,251.80686000000003,0)" xlink:href="#as"/><use transform="matrix(0.05678999999999999,0,0,0.05678999999999999,262.02906,0)" xlink:href="#ap"/><use transform="matrix(0.05678999999999999,0,0,0.05678999999999999,267.70806,0)" xlink:href="#aE"/></g><g id="x"><use transform="matrix(0.05678999999999999,0,0,0.05678999999999999,0,0)" xlink:href="#aj"/><use transform="matrix(0.05678999999999999,0,0,0.05678999999999999,4.486409999999999,0)" xlink:href="#ai"/><use transform="matrix(0.05678999999999999,0,0,0.05678999999999999,8.972819999999999,0)" xlink:href="#as"/><use transform="matrix(0.05678999999999999,0,0,0.05678999999999999,19.19502,0)" xlink:href="#ap"/><use transform="matrix(0.05678999999999999,0,0,0.05678999999999999,24.874019999999998,0)" xlink:href="#ay"/><use transform="matrix(0.05678999999999999,0,0,0.05678999999999999,31.632029999999997,0)" xlink:href="#aE"/><use transform="matrix(0.05678999999999999,0,0,0.05678999999999999,37.311029999999995,0)" xlink:href="#as"/><use transform="matrix(0.05678999999999999,0,0,0.05678999999999999,47.533229999999996,0)" xlink:href="#ap"/><use transform="matrix(0.05678999999999999,0,0,0.05678999999999999,53.21223,0)" xlink:href="#an"/><use transform="matrix(0.05678999999999999,0,0,0.05678999999999999,59.97023999999999,0)" xlink:href="#ai"/><use transform="matrix(0.05678999999999999,0,0,0.05678999999999999,64.45665,0)" xlink:href="#ar"/><use transform="matrix(0.05678999999999999,0,0,0.05678999999999999,75.81465,0)" xlink:href="#aC"/></g><path fill="#333" d="M85 4C-2 5 27-109 22-190h50c7 57-23 150 33 157 60-5 35-97 40-157h50l1 190h-47c-2-12 1-28-3-38-12 25-28 42-61 42" id="aM"/><path fill="#333" d="M137-138c1-29-70-34-71-4 15 46 118 7 119 86 1 83-164 76-172 9l43-7c4 19 20 25 44 25 33 8 57-30 24-41C81-84 22-81 20-136c-2-80 154-74 161-7" id="aN"/><path fill="#333" d="M185-48c-13 30-37 53-82 52C43 2 14-33 14-96s30-98 90-98c62 0 83 45 84 108H66c0 31 8 55 39 56 18 0 30-7 34-22zm-45-69c5-46-57-63-70-21-2 6-4 13-4 21h74" id="aO"/><g id="y"><use transform="matrix(0.04938271604938272,0,0,0.04938271604938272,0,0)" xlink:href="#aM"/><use transform="matrix(0.04938271604938272,0,0,0.04938271604938272,10.814814814814815,0)" xlink:href="#aN"/><use transform="matrix(0.04938271604938272,0,0,0.04938271604938272,20.69135802469136,0)" xlink:href="#aO"/><use transform="matrix(0.04938271604938272,0,0,0.04938271604938272,30.567901234567906,0)" xlink:href="#aN"/></g><path fill="#333" d="M190-63c-7 42-38 67-86 67-59 0-84-38-90-98-12-110 154-137 174-36l-49 2c-2-19-15-32-35-32-30 0-35 28-38 64-6 74 65 87 74 30" id="aP"/><path fill="#333" d="M135-150c-39-12-60 13-60 57V0H25l-1-190h47c2 13-1 29 3 40 6-28 27-53 61-41v41" id="aQ"/><path fill="#333" d="M133-34C117-15 103 5 69 4 32 3 11-16 11-54c-1-60 55-63 116-61 1-26-3-47-28-47-18 1-26 9-28 27l-52-2c7-38 36-58 82-57s74 22 75 68l1 82c-1 14 12 18 25 15v27c-30 8-71 5-69-32zm-48 3c29 0 43-24 42-57-32 0-66-3-65 30 0 17 8 27 23 27" id="aR"/><path fill="#333" d="M115-3C79 11 28 4 28-45v-112H4v-33h27l15-45h31v45h36v33H77v99c-1 23 16 31 38 25v30" id="aS"/><g id="z"><use transform="matrix(0.04938271604938272,0,0,0.04938271604938272,0,0)" xlink:href="#aP"/><use transform="matrix(0.04938271604938272,0,0,0.04938271604938272,9.876543209876544,0)" xlink:href="#aQ"/><use transform="matrix(0.04938271604938272,0,0,0.04938271604938272,16.790123456790127,0)" xlink:href="#aO"/><use transform="matrix(0.04938271604938272,0,0,0.04938271604938272,26.666666666666668,0)" xlink:href="#aR"/><use transform="matrix(0.04938271604938272,0,0,0.04938271604938272,36.543209876543216,0)" xlink:href="#aS"/><use transform="matrix(0.04938271604938272,0,0,0.04938271604938272,42.41975308641976,0)" xlink:href="#aO"/><use transform="matrix(0.04938271604938272,0,0,0.04938271604938272,52.2962962962963,0)" xlink:href="#aN"/></g><path fill="#333" d="M110-194c64 0 96 36 96 99 0 64-35 99-97 99-61 0-95-36-95-99 0-62 34-99 96-99zm-1 164c35 0 45-28 45-65 0-40-10-65-43-65-34 0-45 26-45 65 0 36 10 65 43 65" id="aT"/><path fill="#333" d="M135-194c87-1 58 113 63 194h-50c-7-57 23-157-34-157-59 0-34 97-39 157H25l-1-190h47c2 12-1 28 3 38 12-26 28-41 61-42" id="aU"/><path fill="#333" d="M25-224v-37h50v37H25zM25 0v-190h50V0H25" id="aV"/><g id="A"><use transform="matrix(0.04938271604938272,0,0,0.04938271604938272,0,0)" xlink:href="#aP"/><use transform="matrix(0.04938271604938272,0,0,0.04938271604938272,9.876543209876544,0)" xlink:href="#aT"/><use transform="matrix(0.04938271604938272,0,0,0.04938271604938272,20.69135802469136,0)" xlink:href="#aU"/><use transform="matrix(0.04938271604938272,0,0,0.04938271604938272,31.506172839506174,0)" xlink:href="#aS"/><use transform="matrix(0.04938271604938272,0,0,0.04938271604938272,37.38271604938272,0)" xlink:href="#aR"/><use transform="matrix(0.04938271604938272,0,0,0.04938271604938272,47.25925925925927,0)" xlink:href="#aV"/><use transform="matrix(0.04938271604938272,0,0,0.04938271604938272,52.19753086419754,0)" xlink:href="#aU"/><use transform="matrix(0.04938271604938272,0,0,0.04938271604938272,63.01234567901235,0)" xlink:href="#aN"/></g></defs></g></svg>